<?xml version="1.0" standalone="no"?>
<!DOCTYPE svg PUBLIC "-//W3C//DTD SVG 20010904//EN"
 "http://www.w3.org/TR/2001/REC-SVG-20010904/DTD/svg10.dtd">
<svg version="1.0" xmlns="http://www.w3.org/2000/svg"
 width="510.000000pt" height="400.000000pt" viewBox="0 0 510.000000 400.000000"
 preserveAspectRatio="xMidYMid meet">
<metadata>
Created by potrace 1.16, written by Peter Selinger 2001-2019
</metadata>
<g transform="translate(0.000000,400.000000) scale(0.100000,-0.100000)"
fill="#000000" stroke="none">
<path d="M164 3812 c-16 -11 -24 -40 -16 -61 4 -10 129 -117 277 -237 344
-277 864 -692 1025 -818 362 -283 559 -435 582 -450 21 -14 28 -30 38 -83 9
-52 24 -87 69 -159 32 -51 77 -136 101 -189 l42 -96 -28 -40 c-15 -22 -138
-148 -273 -281 -327 -320 -949 -955 -972 -993 -21 -33 -25 -70 -8 -80 27 -17
69 17 231 192 232 251 1055 1081 1081 1089 22 7 39 -12 32 -37 -7 -22 -696
-703 -791 -783 -100 -83 -36 -161 67 -82 24 18 85 78 134 132 207 227 719 724
747 724 4 0 8 -12 8 -27 0 -21 -52 -78 -264 -293 -255 -257 -283 -291 -274
-337 10 -55 94 -4 195 119 87 105 302 326 324 333 9 3 28 1 42 -4 31 -12 97
-77 97 -95 0 -15 -19 -38 -162 -208 -54 -64 -103 -129 -109 -144 -13 -36 -24
-202 -15 -238 5 -22 12 -26 40 -26 53 0 88 47 85 114 -3 84 19 118 66 100 15
-6 16 -16 10 -84 -6 -65 -4 -79 11 -94 11 -12 25 -15 43 -11 44 10 53 32 46
106 -9 85 7 149 36 149 21 0 21 -3 14 -108 -6 -93 -5 -111 9 -125 26 -26 74 1
103 57 22 43 9 102 -42 187 -63 105 -61 127 12 103 42 -14 708 -390 788 -444
56 -38 80 -44 99 -25 22 23 20 48 -6 72 -13 12 -144 87 -293 166 -276 148
-315 174 -315 201 0 21 35 20 85 -3 45 -20 553 -308 773 -438 152 -89 199
-106 221 -79 11 13 11 20 -1 38 -9 13 -219 137 -489 287 -261 145 -484 270
-496 278 -27 16 -30 41 -6 50 20 8 98 -32 393 -200 306 -176 1149 -644 1319
-732 47 -25 51 -26 80 -10 17 8 31 20 31 25 0 22 -62 61 -298 186 -136 72
-436 236 -667 366 -231 129 -483 270 -560 313 -174 97 -195 112 -195 135 0 30
31 41 76 28 21 -5 156 -77 299 -158 143 -81 336 -191 429 -244 94 -53 178 -96
187 -96 10 0 25 7 34 16 14 14 14 19 2 38 -14 21 -224 142 -422 243 -127 64
-451 249 -478 271 -21 19 -19 61 5 75 25 16 84 -6 169 -61 41 -26 119 -72 174
-102 55 -29 136 -75 179 -102 96 -59 123 -66 155 -41 20 16 22 23 12 41 -19
36 -68 66 -276 173 -234 120 -412 227 -473 286 -38 36 -42 44 -32 62 14 27 42
27 98 0 31 -16 55 -20 86 -17 61 7 99 35 309 225 42 39 45 66 7 71 -29 3 -125
-63 -220 -153 -65 -60 -113 -84 -134 -65 -12 9 -12 17 -4 35 10 22 131 136
227 213 44 35 53 67 22 77 -29 9 -74 -14 -128 -66 -82 -77 -195 -169 -210
-169 -22 0 -15 36 15 72 39 48 59 63 137 110 159 95 169 159 18 111 -69 -22
-165 -100 -244 -201 -69 -87 -98 -107 -142 -98 -70 14 -74 51 -14 133 106 142
331 469 360 523 35 65 32 87 -15 104 -20 7 -32 4 -56 -13 -27 -19 -147 -200
-333 -505 -65 -107 -94 -133 -135 -119 -47 15 -42 44 24 146 33 51 133 211
222 357 90 146 190 305 222 355 33 51 58 100 58 116 0 35 -32 62 -72 61 -42
-1 -68 -32 -152 -172 -35 -58 -121 -197 -191 -310 -70 -113 -158 -261 -194
-330 -65 -121 -68 -125 -102 -128 -52 -4 -75 24 -59 73 6 19 27 58 46 86 18
28 60 94 93 147 254 420 329 539 484 774 97 147 189 290 204 318 27 48 27 51
10 64 -19 14 -84 6 -96 -11 -62 -90 -558 -886 -735 -1178 -54 -88 -104 -166
-113 -173 -44 -32 -116 4 -128 65 -10 51 -39 96 -75 115 -29 16 -48 18 -107
14 -104 -8 -147 9 -279 112 -60 48 -202 159 -315 247 -112 89 -276 217 -364
285 -88 68 -294 230 -459 360 -164 129 -324 255 -356 280 -32 25 -107 84 -168
131 -111 88 -139 104 -158 91z"/>
</g>
</svg>
